<svg width="44" height="44" viewBox="0 0 44 44" fill="none" xmlns="http://www.w3.org/2000/svg">
<path d="M0 22C0 9.84974 9.84974 0 22 0C34.1503 0 44 9.84974 44 22C44 34.1503 34.1503 44 22 44C9.84974 44 0 34.1503 0 22Z" fill="#65558F"/>
<path d="M14.5 17H16.1667M16.1667 17H29.5M16.1667 17L16.1667 28.6667C16.1667 29.1087 16.3423 29.5326 16.6548 29.8452C16.9674 30.1578 17.3913 30.3334 17.8333 30.3334H26.1667C26.6087 30.3334 27.0326 30.1578 27.3452 29.8452C27.6577 29.5326 27.8333 29.1087 27.8333 28.6667V17M18.6667 17V15.3334C18.6667 14.8913 18.8423 14.4674 19.1548 14.1548C19.4674 13.8423 19.8913 13.6667 20.3333 13.6667H23.6667C24.1087 13.6667 24.5326 13.8423 24.8452 14.1548C25.1577 14.4674 25.3333 14.8913 25.3333 15.3334V17M20.3333 21.1667V26.1667M23.6667 21.1667V26.1667" stroke="#F3F3F3" stroke-width="2" stroke-linecap="round" stroke-linejoin="round"/>
</svg>
